<mxfile host="app.diagrams.net" modified="2022-12-25T13:22:03.470Z" agent="5.0 (Windows NT 10.0; Win64; x64) AppleWebKit/537.36 (KHTML, like Gecko) Chrome/98.0.4758.82 Safari/537.36" version="20.7.4" etag="UiNfIEIzI5voWhDOG7oH" type="github">
  <diagram id="2MUG9d1LZeGgCwPpjBkD" name="第 1 页">
    <mxGraphModel dx="868" dy="678" grid="1" gridSize="10" guides="1" tooltips="1" connect="1" arrows="1" fold="1" page="1" pageScale="1" pageWidth="827" pageHeight="1169" math="0" shadow="0">
      <root>
        <mxCell id="0" />
        <mxCell id="1" parent="0" />
        <mxCell id="TiVt-5K4AGDPVAFv3fzT-5" style="edgeStyle=orthogonalEdgeStyle;rounded=0;orthogonalLoop=1;jettySize=auto;html=1;exitX=1;exitY=0.5;exitDx=0;exitDy=0;entryX=0;entryY=0.5;entryDx=0;entryDy=0;" edge="1" parent="1" source="TiVt-5K4AGDPVAFv3fzT-1" target="TiVt-5K4AGDPVAFv3fzT-4">
          <mxGeometry relative="1" as="geometry" />
        </mxCell>
        <mxCell id="TiVt-5K4AGDPVAFv3fzT-1" value="Raw" style="rounded=0;whiteSpace=wrap;html=1;" vertex="1" parent="1">
          <mxGeometry x="30" y="250" width="60" height="50" as="geometry" />
        </mxCell>
        <mxCell id="TiVt-5K4AGDPVAFv3fzT-2" value="Output" style="rounded=0;whiteSpace=wrap;html=1;" vertex="1" parent="1">
          <mxGeometry x="520" y="250" width="70" height="50" as="geometry" />
        </mxCell>
        <mxCell id="TiVt-5K4AGDPVAFv3fzT-7" style="edgeStyle=orthogonalEdgeStyle;rounded=0;orthogonalLoop=1;jettySize=auto;html=1;exitX=1;exitY=0.5;exitDx=0;exitDy=0;entryX=0;entryY=0.5;entryDx=0;entryDy=0;" edge="1" parent="1" source="TiVt-5K4AGDPVAFv3fzT-4" target="TiVt-5K4AGDPVAFv3fzT-6">
          <mxGeometry relative="1" as="geometry" />
        </mxCell>
        <mxCell id="TiVt-5K4AGDPVAFv3fzT-4" value="White Balance" style="rounded=0;whiteSpace=wrap;html=1;" vertex="1" parent="1">
          <mxGeometry x="110" y="250" width="70" height="50" as="geometry" />
        </mxCell>
        <mxCell id="TiVt-5K4AGDPVAFv3fzT-9" style="edgeStyle=orthogonalEdgeStyle;rounded=0;orthogonalLoop=1;jettySize=auto;html=1;exitX=1;exitY=0.5;exitDx=0;exitDy=0;entryX=0;entryY=0.5;entryDx=0;entryDy=0;" edge="1" parent="1" source="TiVt-5K4AGDPVAFv3fzT-6" target="TiVt-5K4AGDPVAFv3fzT-8">
          <mxGeometry relative="1" as="geometry" />
        </mxCell>
        <mxCell id="TiVt-5K4AGDPVAFv3fzT-6" value="Demosaic" style="rounded=0;whiteSpace=wrap;html=1;" vertex="1" parent="1">
          <mxGeometry x="200" y="250" width="60" height="50" as="geometry" />
        </mxCell>
        <mxCell id="TiVt-5K4AGDPVAFv3fzT-11" style="edgeStyle=orthogonalEdgeStyle;rounded=0;orthogonalLoop=1;jettySize=auto;html=1;entryX=0;entryY=0.5;entryDx=0;entryDy=0;" edge="1" parent="1" source="TiVt-5K4AGDPVAFv3fzT-8" target="TiVt-5K4AGDPVAFv3fzT-10">
          <mxGeometry relative="1" as="geometry" />
        </mxCell>
        <mxCell id="TiVt-5K4AGDPVAFv3fzT-8" value="Denoise&amp;amp;&lt;br&gt;Sharpen" style="rounded=0;whiteSpace=wrap;html=1;" vertex="1" parent="1">
          <mxGeometry x="280" y="250" width="60" height="50" as="geometry" />
        </mxCell>
        <mxCell id="TiVt-5K4AGDPVAFv3fzT-13" style="edgeStyle=orthogonalEdgeStyle;rounded=0;orthogonalLoop=1;jettySize=auto;html=1;exitX=1;exitY=0.5;exitDx=0;exitDy=0;entryX=0;entryY=0.5;entryDx=0;entryDy=0;" edge="1" parent="1" source="TiVt-5K4AGDPVAFv3fzT-10" target="TiVt-5K4AGDPVAFv3fzT-12">
          <mxGeometry relative="1" as="geometry" />
        </mxCell>
        <mxCell id="TiVt-5K4AGDPVAFv3fzT-10" value="Color Space Conersion" style="rounded=0;whiteSpace=wrap;html=1;" vertex="1" parent="1">
          <mxGeometry x="360" y="250" width="60" height="50" as="geometry" />
        </mxCell>
        <mxCell id="TiVt-5K4AGDPVAFv3fzT-14" style="edgeStyle=orthogonalEdgeStyle;rounded=0;orthogonalLoop=1;jettySize=auto;html=1;exitX=1;exitY=0.5;exitDx=0;exitDy=0;entryX=0;entryY=0.5;entryDx=0;entryDy=0;" edge="1" parent="1" source="TiVt-5K4AGDPVAFv3fzT-12" target="TiVt-5K4AGDPVAFv3fzT-2">
          <mxGeometry relative="1" as="geometry" />
        </mxCell>
        <mxCell id="TiVt-5K4AGDPVAFv3fzT-12" value="Gamma Correction" style="rounded=0;whiteSpace=wrap;html=1;" vertex="1" parent="1">
          <mxGeometry x="440" y="250" width="60" height="50" as="geometry" />
        </mxCell>
      </root>
    </mxGraphModel>
  </diagram>
</mxfile>
